<svg width="184" height="184" viewBox="0 0 184 184" fill="none" xmlns="http://www.w3.org/2000/svg">
<path d="M92 0C41.2372 0 0 41.2372 0 92C0 142.763 41.2372 184 92 184C142.763 184 184 142.763 184 92C184 41.2372 142.763 0 92 0ZM92 8C138.439 8 176 45.5607 176 92C176 138.439 138.439 176 92 176C45.5607 176 8 138.439 8 92C8 45.5607 45.5607 8 92 8ZM92 36C88.8174 36 85.7652 37.2643 83.5147 39.5147C81.2643 41.7652 80 44.8174 80 48C80 51.1826 81.2643 54.2348 83.5147 56.4853C85.7652 58.7357 88.8174 60 92 60C95.1826 60 98.2348 58.7357 100.485 56.4853C102.736 54.2348 104 51.1826 104 48C104 44.8174 102.736 41.7652 100.485 39.5147C98.2348 37.2643 95.1826 36 92 36ZM76 76V84H80H84V136H80H76V144H80H84H100H104H108V136H104H100V76H96H80H76Z" fill="black"/>
</svg>
